<?xml version="1.0" encoding="UTF-8"?>
<svg xmlns="http://www.w3.org/2000/svg" xmlns:xlink="http://www.w3.org/1999/xlink" width="250px" height="250px" viewBox="0 0 250 250" version="1.1">
<g id="surface1">
<path style=" stroke:none;fill-rule:nonzero;fill:rgb(0%,0%,0%);fill-opacity:1;" d="M 129.101562 5.078125 C 128.417969 5.761719 127.929688 8.59375 127.929688 11.425781 L 127.929688 16.601562 L 122.363281 19.042969 L 116.796875 21.582031 L 112.695312 17.480469 C 109.765625 14.550781 108.105469 13.671875 106.738281 14.0625 C 104.296875 14.84375 87.890625 31.542969 87.890625 33.300781 C 87.890625 33.984375 89.648438 36.425781 91.796875 38.574219 L 95.800781 42.578125 L 93.261719 48.144531 L 90.820312 53.710938 L 85.644531 53.710938 C 82.8125 53.710938 79.980469 54.199219 79.296875 54.882812 C 78.613281 55.566406 78.125 58.886719 78.125 63.085938 L 78.125 70.214844 L 69.824219 70.507812 C 63.085938 70.703125 61.425781 70.507812 61.035156 69.335938 C 60.839844 68.554688 59.667969 63.671875 58.496094 58.59375 C 57.324219 53.515625 55.957031 48.730469 55.371094 48.046875 C 54.6875 47.167969 50.683594 46.875 39.746094 47.070312 C 27.050781 47.363281 25 47.558594 24.023438 49.023438 C 23.242188 50.292969 23.242188 51.269531 24.023438 52.441406 C 24.902344 53.90625 26.953125 54.199219 37.304688 54.492188 L 49.414062 54.785156 L 59.960938 98.925781 C 65.820312 123.242188 73.535156 155.46875 77.246094 170.507812 C 80.957031 185.644531 83.984375 198.4375 83.984375 199.023438 C 83.984375 199.511719 82.617188 200.585938 80.859375 201.269531 C 65.527344 207.617188 61.328125 230.078125 73.242188 241.992188 C 82.519531 251.269531 96.582031 252.441406 106.640625 244.824219 C 117.675781 236.425781 120.3125 221.582031 112.792969 210.546875 L 110.449219 207.03125 L 157.910156 207.03125 L 155.078125 212.5 C 150.097656 222.558594 151.757812 234.570312 159.179688 241.992188 C 164.648438 247.558594 169.433594 249.511719 177.832031 249.511719 C 184.375 249.511719 185.742188 249.21875 189.941406 246.582031 C 208.007812 235.449219 207.226562 211.621094 188.476562 201.074219 C 186.523438 200 176.953125 199.609375 139.160156 199.21875 L 92.285156 198.730469 L 89.160156 186.523438 C 87.5 179.785156 86.035156 173.730469 86.035156 173.046875 C 85.9375 172.167969 97.558594 171.875 141.015625 171.875 C 183.886719 171.875 196.289062 171.582031 197.070312 170.605469 C 198.730469 168.554688 213.964844 117.089844 213.671875 114.355469 C 213.476562 112.402344 212.792969 111.71875 210.644531 111.523438 C 208.300781 111.230469 207.714844 111.71875 206.738281 114.160156 L 205.664062 117.1875 L 132.8125 117.1875 L 132.8125 125 L 203.125 125 L 202.539062 127.636719 C 202.148438 129.199219 201.074219 132.519531 200.195312 135.253906 L 198.535156 140.136719 L 173.535156 140.429688 L 148.4375 140.625 L 148.4375 148.4375 L 172.363281 148.4375 C 185.546875 148.4375 196.289062 148.535156 196.289062 148.632812 C 196.289062 148.828125 195.214844 152.246094 194.042969 156.25 L 191.699219 163.574219 L 137.890625 163.867188 L 84.082031 164.0625 L 83.105469 160.449219 C 82.519531 158.398438 79.882812 147.460938 77.246094 136.230469 C 74.609375 124.902344 70.410156 107.519531 67.96875 97.363281 C 65.527344 87.304688 63.476562 78.808594 63.476562 78.613281 C 63.476562 78.320312 98.046875 78.125 140.234375 78.125 L 216.992188 78.125 L 216.40625 80.761719 C 216.015625 82.324219 215.039062 85.839844 214.257812 88.574219 L 212.792969 93.75 L 117.1875 93.75 L 117.1875 101.5625 L 217.871094 101.5625 L 219.238281 98.339844 C 219.921875 96.679688 221.972656 90.332031 223.730469 84.277344 C 227.734375 70.410156 227.734375 70.3125 215.722656 70.3125 L 207.03125 70.3125 L 207.03125 63.183594 C 207.03125 58.984375 206.542969 55.566406 205.859375 54.882812 C 205.175781 54.199219 202.34375 53.710938 199.511719 53.710938 L 194.335938 53.710938 L 191.894531 48.144531 L 189.355469 42.578125 L 193.457031 38.476562 C 196.386719 35.546875 197.265625 33.886719 196.875 32.519531 C 196.09375 30.078125 179.394531 13.671875 177.636719 13.671875 C 176.953125 13.671875 174.511719 15.429688 172.363281 17.578125 L 168.359375 21.582031 L 162.792969 19.042969 L 157.226562 16.601562 L 157.226562 11.425781 C 157.226562 8.59375 156.738281 5.761719 156.054688 5.078125 C 155.273438 4.296875 150.878906 3.90625 142.578125 3.90625 C 134.277344 3.90625 129.882812 4.296875 129.101562 5.078125 Z M 139.648438 16.015625 C 139.648438 19.921875 138.574219 21.484375 136.132812 21.484375 C 135.9375 21.484375 135.742188 19.238281 135.742188 16.601562 C 135.742188 12.402344 136.035156 11.71875 137.695312 11.71875 C 139.355469 11.71875 139.648438 12.402344 139.648438 16.015625 Z M 108.398438 24.316406 C 108.398438 24.804688 106.640625 27.050781 104.394531 29.394531 L 100.488281 33.496094 L 104.882812 37.988281 C 108.886719 42.1875 109.179688 42.578125 107.8125 44.433594 C 107.03125 45.507812 105.46875 48.925781 104.296875 51.953125 C 102.832031 56.054688 101.757812 57.617188 100.488281 57.617188 C 97.949219 57.617188 98.144531 56.152344 101.5625 49.023438 C 103.222656 45.605469 104.492188 42.285156 104.492188 41.699219 C 104.492188 41.113281 102.929688 39.0625 101.074219 37.109375 L 97.558594 33.496094 L 102.246094 28.613281 C 106.933594 23.730469 108.398438 22.65625 108.398438 24.316406 Z M 179.003906 24.707031 C 179.296875 25.488281 178.710938 26.074219 177.636719 26.074219 C 175.78125 26.269531 175.195312 25.292969 176.464844 24.121094 C 177.441406 23.046875 178.417969 23.339844 179.003906 24.707031 Z M 186.523438 33.496094 C 186.523438 33.691406 185.546875 34.667969 184.375 35.742188 L 182.128906 37.597656 L 183.984375 35.351562 C 185.742188 33.300781 186.523438 32.714844 186.523438 33.496094 Z M 167.480469 40.332031 C 167.871094 39.84375 167.96875 40.039062 167.675781 40.625 C 166.992188 41.894531 171.777344 45.507812 173.339844 45.019531 C 173.925781 44.921875 174.023438 45.117188 173.632812 45.507812 C 173.242188 45.898438 174.121094 47.753906 175.683594 49.707031 C 179.003906 54.003906 181.347656 59.960938 181.640625 64.453125 C 181.933594 69.726562 181.738281 70.3125 179.785156 70.3125 C 178.320312 70.3125 177.929688 69.335938 177.441406 64.941406 C 176.660156 57.421875 172.65625 49.21875 166.699219 43.066406 C 163.867188 40.234375 162.792969 38.574219 164.160156 39.453125 C 165.527344 40.332031 166.992188 40.722656 167.480469 40.332031 Z M 151.367188 42.578125 C 161.328125 45.507812 169.921875 57.128906 169.921875 67.578125 L 169.921875 70.3125 L 114.941406 70.3125 L 115.527344 65.527344 C 117.578125 47.949219 134.082031 37.402344 151.367188 42.578125 Z M 90.332031 65.917969 C 90.332031 69.238281 90.039062 69.824219 88.183594 70.117188 C 86.132812 70.410156 85.9375 70.019531 85.9375 65.917969 C 85.9375 61.816406 86.132812 61.425781 88.183594 61.71875 C 90.039062 62.011719 90.332031 62.597656 90.332031 65.917969 Z M 99.707031 209.277344 C 109.863281 214.648438 111.816406 228.222656 103.613281 236.425781 C 98.046875 242.089844 90.527344 243.554688 84.179688 240.332031 C 77.246094 236.71875 74.21875 231.835938 74.21875 223.828125 C 74.21875 210.9375 87.988281 203.125 99.707031 209.277344 Z M 186.816406 209.960938 C 192.382812 213.28125 195.019531 219.628906 194.433594 228.320312 C 194.433594 229.589844 193.945312 230.273438 193.359375 229.980469 C 192.773438 229.6875 192.675781 230.078125 192.96875 230.957031 C 193.847656 233.203125 186.71875 239.84375 182.128906 241.113281 C 176.660156 242.578125 174.316406 242.480469 170.117188 240.332031 C 163.183594 236.816406 160.15625 231.835938 160.15625 224.023438 C 160.15625 217.96875 163.183594 212.597656 168.164062 209.472656 C 171.679688 207.324219 173.242188 207.03125 177.734375 207.324219 C 180.859375 207.617188 184.667969 208.691406 186.816406 209.960938 Z M 186.816406 209.960938 "/>
</g>
</svg>
