<?xml version="1.0" encoding="UTF-8"?>
<svg xmlns="http://www.w3.org/2000/svg" xmlns:xlink="http://www.w3.org/1999/xlink" width="90px" height="90px" viewBox="0 0 90 90" version="1.1">
<g id="surface1">
<path style=" stroke:none;fill-rule:nonzero;fill:rgb(0%,0%,0%);fill-opacity:1;" d="M 46.476562 1.828125 C 46.230469 2.074219 46.054688 3.09375 46.054688 4.113281 L 46.054688 5.976562 L 44.050781 6.855469 L 42.046875 7.769531 L 40.570312 6.292969 C 39.515625 5.238281 38.917969 4.921875 38.425781 5.0625 C 37.546875 5.34375 31.640625 11.355469 31.640625 11.988281 C 31.640625 12.234375 32.273438 13.113281 33.046875 13.886719 L 34.488281 15.328125 L 33.574219 17.332031 L 32.695312 19.335938 L 30.832031 19.335938 C 29.8125 19.335938 28.792969 19.511719 28.546875 19.757812 C 28.300781 20.003906 28.125 21.199219 28.125 22.710938 L 28.125 25.277344 L 25.136719 25.382812 C 22.710938 25.453125 22.113281 25.382812 21.972656 24.960938 C 21.902344 24.679688 21.480469 22.921875 21.058594 21.09375 C 20.636719 19.265625 20.144531 17.542969 19.933594 17.296875 C 19.6875 16.980469 18.246094 16.875 14.308594 16.945312 C 9.738281 17.050781 9 17.121094 8.648438 17.648438 C 8.367188 18.105469 8.367188 18.457031 8.648438 18.878906 C 8.964844 19.40625 9.703125 19.511719 13.429688 19.617188 L 17.789062 19.722656 L 21.585938 35.613281 C 23.695312 44.367188 26.472656 55.96875 27.808594 61.382812 C 29.144531 66.832031 30.234375 71.4375 30.234375 71.648438 C 30.234375 71.824219 29.742188 72.210938 29.109375 72.457031 C 23.589844 74.742188 22.078125 82.828125 26.367188 87.117188 C 29.707031 90.457031 34.769531 90.878906 38.390625 88.136719 C 42.363281 85.113281 43.3125 79.769531 40.605469 75.796875 L 39.761719 74.53125 L 56.847656 74.53125 L 55.828125 76.5 C 54.035156 80.121094 54.632812 84.445312 57.304688 87.117188 C 59.273438 89.121094 60.996094 89.824219 64.019531 89.824219 C 66.375 89.824219 66.867188 89.71875 68.378906 88.769531 C 74.882812 84.761719 74.601562 76.183594 67.851562 72.386719 C 67.148438 72 63.703125 71.859375 50.097656 71.71875 L 33.222656 71.542969 L 32.097656 67.148438 C 31.5 64.722656 30.972656 62.542969 30.972656 62.296875 C 30.9375 61.980469 35.121094 61.875 50.765625 61.875 C 66.199219 61.875 70.664062 61.769531 70.945312 61.417969 C 71.542969 60.679688 77.027344 42.152344 76.921875 41.167969 C 76.851562 40.464844 76.605469 40.21875 75.832031 40.148438 C 74.988281 40.042969 74.777344 40.21875 74.425781 41.097656 L 74.039062 42.1875 L 47.8125 42.1875 L 47.8125 45 L 73.125 45 L 72.914062 45.949219 C 72.773438 46.511719 72.386719 47.707031 72.070312 48.691406 L 71.472656 50.449219 L 62.472656 50.554688 L 53.4375 50.625 L 53.4375 53.4375 L 62.050781 53.4375 C 66.796875 53.4375 70.664062 53.472656 70.664062 53.507812 C 70.664062 53.578125 70.277344 54.808594 69.855469 56.25 L 69.011719 58.886719 L 49.640625 58.992188 L 30.269531 59.0625 L 29.917969 57.761719 C 29.707031 57.023438 28.757812 53.085938 27.808594 49.042969 C 26.859375 44.964844 25.347656 38.707031 24.46875 35.050781 C 23.589844 31.429688 22.851562 28.371094 22.851562 28.300781 C 22.851562 28.195312 35.296875 28.125 50.484375 28.125 L 78.117188 28.125 L 77.90625 29.074219 C 77.765625 29.636719 77.414062 30.902344 77.132812 31.886719 L 76.605469 33.75 L 42.1875 33.75 L 42.1875 36.5625 L 78.433594 36.5625 L 78.925781 35.402344 C 79.171875 34.804688 79.910156 32.519531 80.542969 30.339844 C 81.984375 25.347656 81.984375 25.3125 77.660156 25.3125 L 74.53125 25.3125 L 74.53125 22.746094 C 74.53125 21.234375 74.355469 20.003906 74.109375 19.757812 C 73.863281 19.511719 72.84375 19.335938 71.824219 19.335938 L 69.960938 19.335938 L 69.082031 17.332031 L 68.167969 15.328125 L 69.644531 13.851562 C 70.699219 12.796875 71.015625 12.199219 70.875 11.707031 C 70.59375 10.828125 64.582031 4.921875 63.949219 4.921875 C 63.703125 4.921875 62.824219 5.554688 62.050781 6.328125 L 60.609375 7.769531 L 58.605469 6.855469 L 56.601562 5.976562 L 56.601562 4.113281 C 56.601562 3.09375 56.425781 2.074219 56.179688 1.828125 C 55.898438 1.546875 54.316406 1.40625 51.328125 1.40625 C 48.339844 1.40625 46.757812 1.546875 46.476562 1.828125 Z M 50.273438 5.765625 C 50.273438 7.171875 49.886719 7.734375 49.007812 7.734375 C 48.9375 7.734375 48.867188 6.925781 48.867188 5.976562 C 48.867188 4.464844 48.972656 4.21875 49.570312 4.21875 C 50.167969 4.21875 50.273438 4.464844 50.273438 5.765625 Z M 39.023438 8.753906 C 39.023438 8.929688 38.390625 9.738281 37.582031 10.582031 L 36.175781 12.058594 L 37.757812 13.675781 C 39.199219 15.1875 39.304688 15.328125 38.8125 15.996094 C 38.53125 16.382812 37.96875 17.613281 37.546875 18.703125 C 37.019531 20.179688 36.632812 20.742188 36.175781 20.742188 C 35.261719 20.742188 35.332031 20.214844 36.5625 17.648438 C 37.160156 16.417969 37.617188 15.222656 37.617188 15.011719 C 37.617188 14.800781 37.054688 14.0625 36.386719 13.359375 L 35.121094 12.058594 L 36.808594 10.300781 C 38.496094 8.542969 39.023438 8.15625 39.023438 8.753906 Z M 64.441406 8.894531 C 64.546875 9.175781 64.335938 9.386719 63.949219 9.386719 C 63.28125 9.457031 63.070312 9.105469 63.527344 8.683594 C 63.878906 8.296875 64.230469 8.402344 64.441406 8.894531 Z M 67.148438 12.058594 C 67.148438 12.128906 66.796875 12.480469 66.375 12.867188 L 65.566406 13.535156 L 66.234375 12.726562 C 66.867188 11.988281 67.148438 11.777344 67.148438 12.058594 Z M 60.292969 14.519531 C 60.433594 14.34375 60.46875 14.414062 60.363281 14.625 C 60.117188 15.082031 61.839844 16.382812 62.402344 16.207031 C 62.613281 16.171875 62.648438 16.242188 62.507812 16.382812 C 62.367188 16.523438 62.683594 17.191406 63.246094 17.894531 C 64.441406 19.441406 65.285156 21.585938 65.390625 23.203125 C 65.496094 25.101562 65.425781 25.3125 64.722656 25.3125 C 64.195312 25.3125 64.054688 24.960938 63.878906 23.378906 C 63.597656 20.671875 62.15625 17.71875 60.011719 15.503906 C 58.992188 14.484375 58.605469 13.886719 59.097656 14.203125 C 59.589844 14.519531 60.117188 14.660156 60.292969 14.519531 Z M 54.492188 15.328125 C 58.078125 16.382812 61.171875 20.566406 61.171875 24.328125 L 61.171875 25.3125 L 41.378906 25.3125 L 41.589844 23.589844 C 42.328125 17.261719 48.269531 13.464844 54.492188 15.328125 Z M 32.519531 23.730469 C 32.519531 24.925781 32.414062 25.136719 31.746094 25.242188 C 31.007812 25.347656 30.9375 25.207031 30.9375 23.730469 C 30.9375 22.253906 31.007812 22.113281 31.746094 22.21875 C 32.414062 22.324219 32.519531 22.535156 32.519531 23.730469 Z M 35.894531 75.339844 C 39.550781 77.273438 40.253906 82.160156 37.300781 85.113281 C 35.296875 87.152344 32.589844 87.679688 30.304688 86.519531 C 27.808594 85.21875 26.71875 83.460938 26.71875 80.578125 C 26.71875 75.9375 31.675781 73.125 35.894531 75.339844 Z M 67.253906 75.585938 C 69.257812 76.78125 70.207031 79.066406 69.996094 82.195312 C 69.996094 82.652344 69.820312 82.898438 69.609375 82.792969 C 69.398438 82.6875 69.363281 82.828125 69.46875 83.144531 C 69.785156 83.953125 67.21875 86.34375 65.566406 86.800781 C 63.597656 87.328125 62.753906 87.292969 61.242188 86.519531 C 58.746094 85.253906 57.65625 83.460938 57.65625 80.648438 C 57.65625 78.46875 58.746094 76.535156 60.539062 75.410156 C 61.804688 74.636719 62.367188 74.53125 63.984375 74.636719 C 65.109375 74.742188 66.480469 75.128906 67.253906 75.585938 Z M 67.253906 75.585938 "/>
</g>
</svg>
